<?xml version="1.0" encoding="UTF-8"?>
<svg width="100px" height="100px" viewBox="0 0 100 100" version="1.1" xmlns="http://www.w3.org/2000/svg" xmlns:xlink="http://www.w3.org/1999/xlink">
    <!-- Generator: Sketch 42 (36781) - http://www.bohemiancoding.com/sketch -->
    <title>Artboard 2</title>
    <desc>Created with Sketch.</desc>
    <defs>
        <rect id="path-1" x="784" y="109" width="17" height="21"></rect>
        <mask id="mask-2" maskContentUnits="userSpaceOnUse" maskUnits="objectBoundingBox" x="0" y="0" width="17" height="21" fill="white">
            <use xlink:href="#path-1"></use>
        </mask>
    </defs>
    <g id="Style-Guide-😎" stroke="none" stroke-width="1" fill="none" fill-rule="evenodd">
        <g id="Chris's-Awesome-Style-Guide-😎" transform="translate(-784.000000, -101.000000)" stroke="#979797" stroke-width="2" fill="#D8D8D8">
            <use id="Rectangle-11" mask="url(#mask-2)" xlink:href="#path-1"></use>
        </g>
        <g id="Artboard-2" fill="#FFFFFF">
            <path d="M50.064,0 C77.669,0 100.128,22.459 100.128,50.064 C100.128,77.669 77.669,100.128 50.064,100.128 C22.459,100.128 0,77.669 0,50.064 C0,22.459 22.459,0 50.064,0 Z M97.128,50.064 C97.128,24.071 76.057,3 50.064,3 C24.071,3 3,24.071 3,50.064 C3,76.057 24.071,97.128 50.064,97.128 C76.057,97.128 97.128,76.057 97.128,50.064 Z" id="Combined-Shape"></path>
            <path d="M62.6769,50.064 C62.6769,57.03 57.0299,62.677 50.0639,62.677 C43.0979,62.677 37.4509,57.03 37.4509,50.064 C37.4509,43.098 43.0979,37.451 50.0639,37.451 C57.0299,37.451 62.6769,43.098 62.6769,50.064" id="Fill-8"></path>
            <path d="M92.6592,45.956 C83.2092,61.139 66.4502,70.635 48.2662,70.635 C47.4512,70.635 46.6372,70.61 45.8242,70.572 C55.0792,78.067 66.9342,82.078 79.1432,81.452 C87.5762,73.636 92.8602,62.469 92.8602,50.064 C92.8602,48.678 92.7882,47.309 92.6592,45.956 M51.8612,29.493 C52.6812,29.493 53.4992,29.517 54.3152,29.555 C45.0602,22.049 33.2122,18.046 20.9862,18.675 C12.5522,26.491 7.2682,37.658 7.2682,50.064 C7.2682,51.452 7.3402,52.824 7.4692,54.178 C16.9212,38.999 33.7042,29.493 51.8612,29.493 M68.7772,41.336 C69.1892,42.049 69.5802,42.771 69.9572,43.5 C71.8412,31.719 69.3792,19.456 62.7002,9.167 C58.7062,7.934 54.4632,7.268 50.0642,7.268 C40.7952,7.268 32.2222,10.225 25.2152,15.232 C43.0882,15.826 59.6832,25.585 68.7772,41.336 M66.9802,61.906 C66.5702,62.616 66.1372,63.311 65.6962,63.999 C76.8252,59.736 86.2212,51.475 91.7902,40.571 C88.8122,27.431 79.7952,16.593 67.8052,11.121 C76.2422,26.896 76.0962,46.117 66.9802,61.906 M34.4272,36.134 C33.9872,36.821 33.5572,37.514 33.1482,38.222 C24.0822,53.924 23.9182,73.236 32.3312,89.011 C20.3382,83.541 11.3172,72.702 8.3392,59.56 C13.9042,48.665 23.3042,40.401 34.4272,36.134" id="Fill-10"></path>
        </g>
    </g>
</svg>