<?xml version="1.0" encoding="UTF-8"?>
<svg width="440px" height="101px" viewBox="0 0 440 101" version="1.1" xmlns="http://www.w3.org/2000/svg" xmlns:xlink="http://www.w3.org/1999/xlink">
    <!-- Generator: Sketch 42 (36781) - http://www.bohemiancoding.com/sketch -->
    <title>Logo</title>
    <desc>Created with Sketch.</desc>
    <defs></defs>
    <g id="Style-Guide-w/-overlays-😎" stroke="none" stroke-width="1" fill="none" fill-rule="evenodd">
        <g id="Chris's-Awesome-Style-Guide-😎" transform="translate(-81.000000, -168.000000)">
            <g id="Logo--Black-Background" transform="translate(42.000000, 111.000000)">
                <g id="Primary-Ruby-Lens-Logo-(FINAL)" transform="translate(39.000000, 57.000000)">
                    <g id="Logo">
                        <path d="M439.3725,63.1286 C439.3725,70.5786 432.6745,74.4176 425.1485,74.4176 C420.7085,74.4176 414.9885,72.9876 411.7535,71.1056 L413.5595,63.8806 C416.4185,65.5366 421.6115,67.0426 425.4495,67.0426 C428.1595,67.0426 430.1155,65.9886 430.1155,63.9566 C430.1155,61.3976 428.5355,60.5706 422.3645,58.1616 C416.5695,55.9036 412.8065,53.8726 412.8065,47.4756 C412.8065,40.1746 418.7515,36.1866 426.5035,36.1866 C430.8685,36.1866 435.4595,37.5406 438.0175,38.9706 L436.2115,46.1206 C434.2545,45.1416 430.1915,44.0136 427.1055,44.0136 C423.7195,44.0136 422.1385,45.0666 422.1385,47.0236 C422.1385,48.9806 424.6215,49.8836 428.9115,51.4636 C435.6095,53.9476 439.3725,57.2586 439.3725,63.1286 L439.3725,63.1286 Z M405.2815,48.6796 L405.2815,73.3636 L396.1005,73.3636 L396.1005,51.0126 C396.1005,46.8726 394.0685,44.6146 390.4565,44.6146 C387.2205,44.6146 384.2855,46.5716 382.0275,48.9046 L382.0275,73.3636 L372.8465,73.3636 L372.8465,37.9926 L382.0275,36.1866 L382.0275,41.4546 C385.0375,38.0676 389.5535,36.1866 393.9185,36.1866 C401.6695,36.1866 405.2815,41.6056 405.2815,48.6796 L405.2815,48.6796 Z M350.7225,43.9376 C353.1305,43.9376 355.6885,44.8416 355.6885,48.7546 C355.6885,49.2056 355.6885,50.4106 355.6135,50.6356 L342.8195,50.6356 C344.3255,45.3676 347.5615,43.9376 350.7225,43.9376 L350.7225,43.9376 Z M364.2685,56.7316 C364.7195,55.3766 365.1715,52.1406 365.1715,49.7326 C365.1715,40.7776 359.6775,36.1866 351.3995,36.1866 C339.6595,36.1866 332.9615,43.8626 332.9615,56.3556 C332.9615,69.1496 341.0895,74.4176 350.8725,74.4176 C356.2915,74.4176 362.6125,72.1596 365.0965,70.2786 L363.6665,63.4296 C360.7315,65.0096 356.0655,66.5156 352.2275,66.5156 C345.8305,66.5156 342.3685,62.9786 342.3685,56.8076 L342.3685,56.7316 L364.2685,56.7316 Z M308.2765,64.6346 L328.8225,64.6346 L328.8225,73.3636 L298.5685,73.3636 L298.5685,22.9406 L308.2765,22.9406 L308.2765,64.6346 Z M271.2355,37.2396 L280.6435,37.2396 L265.8175,77.5036 C263.1835,84.6526 259.5715,91.0496 250.9915,91.0496 C248.8095,91.0496 245.9495,90.6726 243.9175,89.6196 L245.4225,82.9966 C246.6265,83.5236 248.8845,83.9006 250.0885,83.9006 C254.3785,83.9006 256.6365,79.3096 259.1955,71.9336 L244.8955,37.2396 L254.6795,37.2396 L263.4845,59.8926 L271.2355,37.2396 Z M224.5015,66.8166 C221.7175,66.8166 219.2345,65.7626 217.6535,64.7086 L217.6535,48.5286 C219.7605,45.8946 222.4705,44.2386 225.6305,44.2386 C231.1245,44.2386 233.0065,49.6576 233.0065,55.4526 C233.0065,63.0536 229.6195,66.8166 224.5015,66.8166 L224.5015,66.8166 Z M227.7385,36.1866 C224.0505,36.1866 220.3625,37.5406 217.6535,40.5516 L217.6535,18.7266 L208.4725,20.6076 L208.4725,74.4176 L213.6645,74.4176 L215.8475,71.5576 C217.4275,72.8366 221.1155,74.4176 224.8785,74.4176 C235.9415,74.4176 242.4135,66.7416 242.4135,54.7746 C242.4135,43.1096 236.4675,36.1866 227.7385,36.1866 L227.7385,36.1866 Z M189.9605,37.2396 L199.1415,37.2396 L199.1415,73.3636 L189.9605,73.3636 L189.9605,69.6006 C186.9495,72.6866 182.5855,74.4176 178.4455,74.4176 C170.6945,74.4176 167.0815,68.9986 167.0815,61.9246 L167.0815,37.2396 L176.2635,37.2396 L176.2635,59.9676 C176.2635,64.1076 178.0695,66.3646 181.6825,66.3646 C184.9935,66.3646 187.7775,64.3326 189.9605,62.1506 L189.9605,37.2396 Z M138.1095,44.3896 L132.0885,44.3896 L132.0885,31.6706 L137.5075,31.6706 C142.6255,31.6706 145.7855,32.4986 145.7855,37.5406 C145.7855,41.0786 144.4315,44.3896 138.1095,44.3896 L138.1095,44.3896 Z M154.9675,64.5586 L149.6995,55.2266 C148.1185,52.5176 146.9145,51.4636 143.9045,50.4106 C152.1825,48.9046 155.5695,42.9596 155.5695,37.1646 C155.5695,26.1016 148.1945,22.9406 139.0125,22.9406 L122.3805,22.9406 L122.3805,73.3636 L132.0885,73.3636 L132.0885,52.6676 L134.4975,52.6676 C136.5295,52.6676 137.7335,52.8936 139.1635,55.4526 L146.6135,68.8486 C148.4195,72.1596 150.8285,73.9656 154.3655,73.9656 C155.7955,73.9656 158.9565,73.8906 160.5365,73.3636 L160.5365,67.1176 L158.4295,67.1176 C156.9995,67.1176 156.0965,66.4406 154.9675,64.5586 L154.9675,64.5586 Z" id="Fill-2" fill="#FFFFFF"></path>
                        <path d="M50.2507,0.5281 C22.6457,0.5281 0.1867,22.9871 0.1867,50.5921 C0.1867,78.1971 22.6457,100.6561 50.2507,100.6561 C77.8557,100.6561 100.3147,78.1971 100.3147,50.5921 C100.3147,22.9871 77.8557,0.5281 50.2507,0.5281" id="Fill-4" fill="#FFFFFF"></path>
                        <path d="M97.3147,50.5921 C97.3147,76.5851 76.2437,97.6561 50.2507,97.6561 C24.2577,97.6561 3.1867,76.5851 3.1867,50.5921 C3.1867,24.5991 24.2577,3.5281 50.2507,3.5281 C76.2437,3.5281 97.3147,24.5991 97.3147,50.5921" id="Fill-6" fill="#25282A"></path>
                        <path d="M62.8636,50.5921 C62.8636,57.5581 57.2166,63.2051 50.2506,63.2051 C43.2846,63.2051 37.6376,57.5581 37.6376,50.5921 C37.6376,43.6261 43.2846,37.9791 50.2506,37.9791 C57.2166,37.9791 62.8636,43.6261 62.8636,50.5921" id="Fill-8" fill="#FFFFFF"></path>
                        <path d="M92.8459,46.4841 C83.3959,61.6671 66.6369,71.1631 48.4529,71.1631 C47.6379,71.1631 46.8239,71.1381 46.0109,71.1001 C55.2659,78.5951 67.1209,82.6061 79.3299,81.9801 C87.7629,74.1641 93.0469,62.9971 93.0469,50.5921 C93.0469,49.2061 92.9749,47.8371 92.8459,46.4841 M52.0479,30.0211 C52.8679,30.0211 53.6859,30.0451 54.5019,30.0831 C45.2469,22.5771 33.3989,18.5741 21.1729,19.2031 C12.7389,27.0191 7.4549,38.1861 7.4549,50.5921 C7.4549,51.9801 7.5269,53.3521 7.6559,54.7061 C17.1079,39.5271 33.8909,30.0211 52.0479,30.0211 M68.9639,41.8641 C69.3759,42.5771 69.7669,43.2991 70.1439,44.0281 C72.0279,32.2471 69.5659,19.9841 62.8869,9.6951 C58.8929,8.4621 54.6499,7.7961 50.2509,7.7961 C40.9819,7.7961 32.4089,10.7531 25.4019,15.7601 C43.2749,16.3541 59.8699,26.1131 68.9639,41.8641 M67.1669,62.4341 C66.7569,63.1441 66.3239,63.8391 65.8829,64.5271 C77.0119,60.2641 86.4079,52.0031 91.9769,41.0991 C88.9989,27.9591 79.9819,17.1211 67.9919,11.6491 C76.4289,27.4241 76.2829,46.6451 67.1669,62.4341 M34.6139,36.6621 C34.1739,37.3491 33.7439,38.0421 33.3349,38.7501 C24.2689,54.4521 24.1049,73.7641 32.5179,89.5391 C20.5249,84.0691 11.5039,73.2301 8.5259,60.0881 C14.0909,49.1931 23.4909,40.9291 34.6139,36.6621" id="Fill-10" fill="#C8102E"></path>
                    </g>
                </g>
            </g>
        </g>
    </g>
</svg>